<svg width="640" height="480" xmlns="http://www.w3.org/2000/svg" xmlns:svg="http://www.w3.org/2000/svg">
 <!-- Created with SVG-edit - https://github.com/SVG-Edit/svgedit-->
 <g class="layer">
  <title>Layer 1</title>
  <path d="m184.00108,476.55515l-23.94159,-29.01628l-39.25321,-41.42376l-44.91579,-32.99893l-50.75501,-29.63056l-22.13545,-10.69858l13.8626,-61.40376l13.8626,-63.51869l1.35049,-2.33387l18.11082,7.75713l16.76033,7.75713l26.03553,24.14021l26.03553,24.14021l11.81859,17.49209l12.46252,17.49209l87.16198,-83.96201l108.37172,-94.23623l79.59817,-57.58534l102.82778,-65.33308l51.0418,58.69693l57.78549,67.36536l7.88252,9.87788l-55.674,29.70992l-55.64585,28.75325l-58.58067,37.83053l-146.88406,105.24569l-40.00787,33.19386l-33.62892,34.98417l-47.19237,52.04454l-14.46626,17.08051l-1.88742,-1.42039z" fill="#21b04b" id="svg_2" stroke="#000000" stroke-width="0"/>
 </g>
</svg>