<svg width="640" height="480" xmlns="http://www.w3.org/2000/svg" xmlns:svg="http://www.w3.org/2000/svg">
 <!-- Created with SVG-edit - https://github.com/SVG-Edit/svgedit-->
 <g class="layer">
  <title>Layer 1</title>
  <path d="m125.23432,477.55515l-27.0936,-29.01628l-44.42106,-41.42376l-50.82914,-32.99893l76.28318,-68.80662l98.63723,-83.96201l122.63933,-94.23623l90.07761,-57.58534l116.3655,-65.33308l57.76167,58.69693l65.3932,67.36536l8.92028,9.87788l-63.00372,29.70992l-62.97187,28.75325l-66.29307,37.83053l-166.22198,105.24569l-45.27508,33.19386l-38.05631,34.98417l-53.40544,52.04454l-16.37081,17.08051l-2.1359,-1.42039z" fill="#ff0000" id="svg_2" stroke="#000000" stroke-width="0"/>
  <path d="m139.67049,521.93916l-24.68936,-33.99248l-40.47921,-48.52779l-46.31865,-38.65813l69.51394,-80.60672l89.88432,-98.36121l111.75651,-110.39742l82.08427,-67.46102l106.03942,-76.53748l52.63599,68.76325l59.59031,78.91828l8.12871,11.57191l-57.41287,34.80506l-57.38385,33.68434l-60.41033,44.31834l-151.47171,123.29496l-41.25744,38.8865l-34.67926,40.98384l-48.66633,60.97l-14.91809,20.00976l-1.94637,-1.66398z" fill="#ff0000" id="svg_1" stroke="#000000" stroke-width="0" transform="rotate(-106.988 318 245.5)"/>
 </g>
</svg>